<?xml version="1.0" encoding="iso-8859-1"?><!-- Generator: Adobe Illustrator 22.1.0, SVG Export Plug-In . SVG Version: 6.00 Build 0)  --><svg xmlns="http://www.w3.org/2000/svg" xmlns:xlink="http://www.w3.org/1999/xlink" viewBox="0 0 24 24" width="24px" height="24px"><g id="Outlined"><path d="M16,1c-1.135,0-2.231,0.48-2.957,1.268c-0.656,0.717-1.055,1.99-1.055,3.014c1.172,0,2.424-0.602,3.119-1.404C15.755,3.127,16,2.209,16,1z"/><path d="M18.786,12c0-1.539,0.867-2.86,2.125-3.529c-1.087-2.044-3.015-2.958-4.44-2.958c-1.539,0-2.826,1.042-4.098,1.042S9.815,5.513,8.276,5.513C6.182,5.514,3,7.48,3,12.111C3,16.324,6.766,21,8.892,21c0.01,0,0.02,0,0.03,0c1.269,0,1.712-0.824,3.451-0.833C14.112,20.176,14.556,21,15.824,21c0.01,0,0.02,0,0.03,0c1.542,0,3.941-2.463,5.146-5.423C19.693,14.925,18.786,13.576,18.786,12z M15.811,19c-0.152-0.002-0.263-0.043-0.638-0.204c-0.577-0.248-1.449-0.622-2.811-0.629c-1.341,0.007-2.213,0.381-2.79,0.629c-0.358,0.154-0.475,0.198-0.641,0.203C7.941,18.758,5,15.437,5,12.111c0-3.473,2.208-4.597,3.276-4.598c0.432,0,0.961,0.205,1.522,0.423c0.748,0.29,1.596,0.619,2.576,0.619c0.98,0,1.828-0.329,2.576-0.619c0.56-0.217,1.089-0.423,1.521-0.423c0.418,0,1.068,0.197,1.677,0.684c-0.867,1.054-1.361,2.39-1.361,3.803c0,1.597,0.62,3.081,1.691,4.18C17.487,17.865,16.262,18.886,15.811,19z"/></g></svg>